# xmcd
#
# Track frame offsets: 
#        150
#        12596
#        27979
#        40830
#        53712
#        67938
#        85399
#        100095
#        111344
#        126855
#
# Disc length: 2064 seconds
#
# Revision: 0
# Processed by: cddbd v1.5.2PL0 Copyright (c) Steve Scherf et al.
# Submitted via: ExactAudioCopy v1.0b1
#
DISCID=80080e0a
DTITLE=Profane Sass - Profane Sass
DYEAR=2011
DGENRE=Bluegrass
TTITLE0=Wayfaring Stranger
TTITLE1=La Tierra
TTITLE2=No Tren
TTITLE3=Bees Knees
TTITLE4=Los Abandonados
TTITLE5=In Motion
TTITLE6=Rabinal
TTITLE7=Worth It
TTITLE8=12.28
TTITLE9=No Borders
EXTD=
EXTT0=
EXTT1=
EXTT2=
EXTT3=
EXTT4=
EXTT5=
EXTT6=
EXTT7=
EXTT8=
EXTT9=
PLAYORDER=
